<svg xmlns="http://www.w3.org/2000/svg" xmlns:xlink="http://www.w3.org/1999/xlink" width="500" zoomAndPan="magnify" viewBox="0 0 375 374.999991" height="500" preserveAspectRatio="xMidYMid meet" version="1.0"><defs><g/><clipPath id="0dd42d8d6d"><path d="M 0.71875 66 L 80 66 L 80 167 L 0.71875 167 Z M 0.71875 66 " clip-rule="nonzero"/></clipPath><clipPath id="050cc81889"><rect x="0" width="259" y="0" height="213"/></clipPath></defs><g transform="matrix(1, 0, 0, 1, 60, 72)"><g clip-path="url(#050cc81889)"><g clip-path="url(#0dd42d8d6d)"><g fill="#000000" fill-opacity="1"><g transform="translate(0.938742, 124.502472)"><g><path d="M 2.78125 41.875 L 0 41.203125 C 1.90625 37.179688 4.273438 33.578125 7.109375 30.390625 C 9.953125 27.203125 13.101562 24.425781 16.5625 22.0625 C 12.445312 19.101562 9.410156 15.539062 7.453125 11.375 C 5.492188 7.207031 4.515625 2.8125 4.515625 -1.8125 C 4.515625 -2.707031 4.539062 -3.617188 4.59375 -4.546875 C 4.644531 -5.484375 4.742188 -6.425781 4.890625 -7.375 C 3.785156 -8.882812 2.96875 -10.539062 2.4375 -12.34375 C 1.914062 -14.15625 1.65625 -16.066406 1.65625 -18.078125 C 1.65625 -21.492188 2.445312 -25.03125 4.03125 -28.6875 C 5.613281 -32.351562 7.945312 -35.914062 11.03125 -39.375 C 14.125 -42.84375 17.953125 -45.984375 22.515625 -48.796875 C 27.085938 -51.609375 32.359375 -53.878906 38.328125 -55.609375 C 44.304688 -57.347656 50.988281 -58.289062 58.375 -58.4375 L 58.296875 -57.921875 C 51.066406 -57.515625 44.523438 -56.421875 38.671875 -54.640625 C 32.828125 -52.859375 27.679688 -50.5625 23.234375 -47.75 C 18.785156 -44.9375 15.082031 -41.859375 12.125 -38.515625 C 9.164062 -35.179688 6.929688 -31.742188 5.421875 -28.203125 C 3.910156 -24.660156 3.15625 -21.257812 3.15625 -18 C 3.15625 -14.738281 3.859375 -11.851562 5.265625 -9.34375 C 6.117188 -13.601562 7.675781 -17.804688 9.9375 -21.953125 C 12.195312 -26.097656 15.054688 -30 18.515625 -33.65625 C 21.984375 -37.320312 25.976562 -40.5625 30.5 -43.375 C 35.019531 -46.1875 40.003906 -48.394531 45.453125 -50 C 50.898438 -51.613281 56.738281 -52.421875 62.96875 -52.421875 C 67.988281 -52.421875 71.613281 -51.363281 73.84375 -49.25 C 76.082031 -47.144531 77.203125 -44.4375 77.203125 -41.125 C 77.203125 -38.507812 76.570312 -35.671875 75.3125 -32.609375 C 74.0625 -29.546875 72.28125 -26.445312 69.96875 -23.3125 C 67.65625 -20.175781 64.90625 -17.160156 61.71875 -14.265625 C 58.53125 -11.378906 54.988281 -8.804688 51.09375 -6.546875 C 47.207031 -4.285156 43.054688 -2.488281 38.640625 -1.15625 C 34.222656 0.164062 29.648438 0.828125 24.921875 0.828125 C 22.316406 0.828125 19.921875 0.597656 17.734375 0.140625 C 15.546875 -0.304688 13.578125 -0.929688 11.828125 -1.734375 C 11.617188 -0.722656 11.460938 0.304688 11.359375 1.359375 C 11.265625 2.410156 11.21875 3.4375 11.21875 4.4375 C 11.21875 7.601562 11.769531 10.59375 12.875 13.40625 C 13.976562 16.21875 15.757812 18.726562 18.21875 20.9375 C 22.4375 18.175781 26.90625 15.953125 31.625 14.265625 C 36.34375 12.585938 41.050781 11.359375 45.75 10.578125 C 50.445312 9.804688 54.851562 9.421875 58.96875 9.421875 C 66 9.421875 71.082031 10.160156 74.21875 11.640625 C 77.351562 13.117188 78.921875 14.890625 78.921875 16.953125 C 78.921875 18.453125 78.179688 19.976562 76.703125 21.53125 C 75.222656 23.09375 73.113281 24.535156 70.375 25.859375 C 67.644531 27.191406 64.394531 28.257812 60.625 29.0625 C 56.863281 29.875 52.695312 30.28125 48.125 30.28125 C 41.289062 30.28125 35.3125 29.578125 30.1875 28.171875 C 25.070312 26.765625 20.757812 24.878906 17.25 22.515625 C 13.882812 24.929688 10.945312 27.734375 8.4375 30.921875 C 5.925781 34.109375 4.039062 37.757812 2.78125 41.875 Z M 24.546875 -0.296875 C 29.523438 -0.296875 34.242188 -0.945312 38.703125 -2.25 C 43.171875 -3.5625 47.328125 -5.347656 51.171875 -7.609375 C 55.015625 -9.867188 58.46875 -12.414062 61.53125 -15.25 C 64.59375 -18.082031 67.203125 -21.03125 69.359375 -24.09375 C 71.515625 -27.15625 73.171875 -30.164062 74.328125 -33.125 C 75.484375 -36.09375 76.0625 -38.804688 76.0625 -41.265625 C 76.0625 -44.179688 75.195312 -46.539062 73.46875 -48.34375 C 71.738281 -50.15625 69.015625 -51.0625 65.296875 -51.0625 C 60.828125 -51.0625 56.296875 -50.117188 51.703125 -48.234375 C 47.109375 -46.347656 42.664062 -43.785156 38.375 -40.546875 C 34.082031 -37.316406 30.128906 -33.640625 26.515625 -29.515625 C 22.898438 -25.398438 19.835938 -21.054688 17.328125 -16.484375 C 14.816406 -11.921875 13.054688 -7.40625 12.046875 -2.9375 C 13.648438 -2.132812 15.492188 -1.492188 17.578125 -1.015625 C 19.671875 -0.535156 21.992188 -0.296875 24.546875 -0.296875 Z M 48.421875 29.453125 C 52.585938 29.453125 56.441406 29.070312 59.984375 28.3125 C 63.523438 27.5625 66.613281 26.554688 69.25 25.296875 C 71.882812 24.046875 73.929688 22.691406 75.390625 21.234375 C 76.847656 19.773438 77.578125 18.367188 77.578125 17.015625 C 77.578125 15.160156 76.09375 13.566406 73.125 12.234375 C 70.164062 10.910156 65.320312 10.25 58.59375 10.25 C 54.53125 10.25 50.160156 10.632812 45.484375 11.40625 C 40.816406 12.1875 36.1875 13.390625 31.59375 15.015625 C 27 16.648438 22.71875 18.800781 18.75 21.46875 C 21.71875 23.925781 25.625 25.867188 30.46875 27.296875 C 35.3125 28.734375 41.296875 29.453125 48.421875 29.453125 Z M 48.421875 29.453125 "/></g></g></g></g><g fill="#000000" fill-opacity="1"><g transform="translate(66.685552, 124.502472)"><g><path d="M -3.546875 1.65625 C -4.347656 1.65625 -5.007812 1.441406 -5.53125 1.015625 C -6.0625 0.585938 -6.328125 -0.148438 -6.328125 -1.203125 C -6.328125 -1.660156 -6.140625 -2.3125 -5.765625 -3.15625 C -5.390625 -4.007812 -4.648438 -5.203125 -3.546875 -6.734375 C -2.441406 -8.265625 -0.820312 -10.25 1.3125 -12.6875 C 3.445312 -15.125 6.296875 -18.148438 9.859375 -21.765625 C 11.117188 -21.765625 12.390625 -21.8125 13.671875 -21.90625 C 14.953125 -22.007812 15.96875 -22.085938 16.71875 -22.140625 L 16.953125 -21.6875 C 15.992188 -20.988281 14.671875 -19.910156 12.984375 -18.453125 C 11.304688 -16.992188 9.515625 -15.359375 7.609375 -13.546875 C 5.703125 -11.742188 3.894531 -9.953125 2.1875 -8.171875 C 0.476562 -6.390625 -0.925781 -4.832031 -2.03125 -3.5 C -3.132812 -2.164062 -3.6875 -1.222656 -3.6875 -0.671875 C -3.6875 0.273438 -3.210938 0.75 -2.265625 0.75 C -1.253906 0.75 0.238281 0.125 2.21875 -1.125 C 4.207031 -2.382812 6.328125 -3.941406 8.578125 -5.796875 C 8.429688 -6.046875 8.359375 -6.347656 8.359375 -6.703125 C 8.359375 -7.304688 8.722656 -7.992188 9.453125 -8.765625 C 10.179688 -9.546875 11.082031 -10.238281 12.15625 -10.84375 C 13.238281 -11.445312 14.28125 -11.75 15.28125 -11.75 C 17.238281 -13.65625 18.929688 -15.5 20.359375 -17.28125 C 21.796875 -19.0625 22.613281 -20.484375 22.8125 -21.546875 C 23.070312 -21.546875 23.5625 -21.554688 24.28125 -21.578125 C 25.007812 -21.597656 25.8125 -21.617188 26.6875 -21.640625 C 27.570312 -21.671875 28.378906 -21.722656 29.109375 -21.796875 C 29.835938 -21.878906 30.328125 -21.941406 30.578125 -21.984375 L 30.796875 -21.609375 C 29.992188 -21.265625 29.050781 -20.765625 27.96875 -20.109375 C 26.894531 -19.453125 26.03125 -18.847656 25.375 -18.296875 C 24.375 -17.441406 23.082031 -16.3125 21.5 -14.90625 C 19.914062 -13.5 18.171875 -11.976562 16.265625 -10.34375 C 14.359375 -8.71875 12.398438 -7.128906 10.390625 -5.578125 C 10.941406 -5.421875 11.59375 -5.34375 12.34375 -5.34375 C 13.601562 -5.34375 15.132812 -5.617188 16.9375 -6.171875 C 18.75 -6.722656 20.734375 -7.703125 22.890625 -9.109375 L 25.828125 -11.078125 L 26.140625 -10.46875 L 23.34375 -8.578125 C 21.332031 -7.179688 19.320312 -6.164062 17.3125 -5.53125 C 15.3125 -4.90625 13.582031 -4.59375 12.125 -4.59375 C 11.21875 -4.59375 10.390625 -4.71875 9.640625 -4.96875 C 7.179688 -3.113281 4.785156 -1.546875 2.453125 -0.265625 C 0.117188 1.015625 -1.878906 1.65625 -3.546875 1.65625 Z M -3.546875 1.65625 "/></g></g></g><g fill="#000000" fill-opacity="1"><g transform="translate(92.140787, 124.502472)"><g><path d="M 34.640625 2.1875 C 33.835938 2.1875 33.171875 1.867188 32.640625 1.234375 C 32.117188 0.609375 31.859375 -0.28125 31.859375 -1.4375 C 31.859375 -2.289062 32.285156 -3.289062 33.140625 -4.4375 C 33.992188 -5.59375 35.097656 -6.820312 36.453125 -8.125 C 37.804688 -9.4375 39.234375 -10.734375 40.734375 -12.015625 C 42.242188 -13.296875 43.675781 -14.507812 45.03125 -15.65625 C 46.394531 -16.8125 47.5 -17.800781 48.34375 -18.625 C 49.195312 -19.457031 49.625 -20.050781 49.625 -20.40625 C 49.625 -20.5625 49.5 -20.640625 49.25 -20.640625 C 48.445312 -20.640625 47.242188 -20.25 45.640625 -19.46875 C 44.035156 -18.6875 42.210938 -17.664062 40.171875 -16.40625 C 38.140625 -15.15625 36.054688 -13.800781 33.921875 -12.34375 C 31.796875 -10.894531 29.765625 -9.476562 27.828125 -8.09375 C 25.890625 -6.71875 24.21875 -5.5 22.8125 -4.4375 L 17.328125 1.125 C 16.066406 1.125 14.796875 1.160156 13.515625 1.234375 C 12.234375 1.316406 11.21875 1.40625 10.46875 1.5 L 10.25 1.046875 C 11.050781 0.453125 12.15625 -0.40625 13.5625 -1.53125 C 14.96875 -2.664062 16.519531 -3.945312 18.21875 -5.375 C 19.925781 -6.8125 21.617188 -8.28125 23.296875 -9.78125 C 24.984375 -11.289062 26.539062 -12.734375 27.96875 -14.109375 C 29.40625 -15.492188 30.5625 -16.703125 31.4375 -17.734375 C 32.320312 -18.765625 32.765625 -19.503906 32.765625 -19.953125 C 32.765625 -20.253906 32.535156 -20.40625 32.078125 -20.40625 C 31.773438 -20.40625 31.425781 -20.332031 31.03125 -20.1875 C 29.769531 -19.6875 28.222656 -18.90625 26.390625 -17.84375 C 24.554688 -16.789062 22.609375 -15.585938 20.546875 -14.234375 C 18.492188 -12.878906 16.460938 -11.5 14.453125 -10.09375 C 12.453125 -8.6875 10.625 -7.378906 8.96875 -6.171875 L 1.8125 1.125 C 0.550781 1.125 -0.71875 1.160156 -2 1.234375 C -3.28125 1.316406 -4.296875 1.40625 -5.046875 1.5 L -5.265625 1.046875 C -4.460938 0.453125 -3.359375 -0.40625 -1.953125 -1.53125 C -0.546875 -2.664062 0.992188 -3.960938 2.671875 -5.421875 C 4.359375 -6.878906 6.050781 -8.375 7.75 -9.90625 C 9.457031 -11.4375 11.015625 -12.914062 12.421875 -14.34375 C 13.828125 -15.78125 14.96875 -17.050781 15.84375 -18.15625 C 16.726562 -19.257812 17.171875 -20.085938 17.171875 -20.640625 C 17.171875 -20.890625 17.019531 -21.015625 16.71875 -21.015625 C 16.46875 -21.015625 15.878906 -20.722656 14.953125 -20.140625 C 14.023438 -19.566406 12.90625 -18.835938 11.59375 -17.953125 C 10.289062 -17.078125 8.984375 -16.1875 7.671875 -15.28125 C 6.367188 -14.382812 5.21875 -13.582031 4.21875 -12.875 L 0 -10.015625 L -0.53125 -10.46875 L 4.0625 -13.5625 C 6.175781 -15.007812 8.210938 -16.398438 10.171875 -17.734375 C 12.128906 -19.066406 13.882812 -20.171875 15.4375 -21.046875 C 17 -21.929688 18.203125 -22.375 19.046875 -22.375 C 19.597656 -22.375 19.972656 -22.222656 20.171875 -21.921875 C 20.378906 -21.617188 20.484375 -21.265625 20.484375 -20.859375 C 20.484375 -20.054688 19.789062 -18.722656 18.40625 -16.859375 C 17.03125 -15.003906 14.632812 -12.242188 11.21875 -8.578125 C 13.125 -9.941406 15.179688 -11.375 17.390625 -12.875 C 19.609375 -14.382812 21.769531 -15.78125 23.875 -17.0625 C 25.976562 -18.34375 27.882812 -19.394531 29.59375 -20.21875 C 31.300781 -21.050781 32.609375 -21.46875 33.515625 -21.46875 C 34.765625 -21.46875 35.390625 -20.789062 35.390625 -19.4375 C 35.390625 -18.976562 35.085938 -18.285156 34.484375 -17.359375 C 33.890625 -16.429688 32.863281 -15.160156 31.40625 -13.546875 C 29.945312 -11.941406 27.9375 -9.8125 25.375 -7.15625 C 27.289062 -8.507812 29.425781 -10 31.78125 -11.625 C 34.144531 -13.257812 36.503906 -14.832031 38.859375 -16.34375 C 41.222656 -17.851562 43.367188 -19.082031 45.296875 -20.03125 C 47.234375 -20.988281 48.703125 -21.46875 49.703125 -21.46875 C 50.960938 -21.46875 51.59375 -20.890625 51.59375 -19.734375 C 51.59375 -18.273438 51.015625 -16.753906 49.859375 -15.171875 C 48.703125 -13.585938 47.28125 -12.019531 45.59375 -10.46875 C 43.914062 -8.914062 42.222656 -7.445312 40.515625 -6.0625 C 38.804688 -4.675781 37.375 -3.441406 36.21875 -2.359375 C 35.070312 -1.285156 34.5 -0.472656 34.5 0.078125 C 34.5 0.878906 34.875 1.28125 35.625 1.28125 C 36.570312 1.28125 38.023438 0.71875 39.984375 -0.40625 C 41.941406 -1.539062 44.328125 -3.035156 47.140625 -4.890625 C 49.953125 -6.753906 53.066406 -8.816406 56.484375 -11.078125 L 56.78125 -10.46875 C 53.46875 -8.257812 50.367188 -6.1875 47.484375 -4.25 C 44.597656 -2.320312 42.0625 -0.769531 39.875 0.40625 C 37.695312 1.59375 35.953125 2.1875 34.640625 2.1875 Z M 34.640625 2.1875 "/></g></g></g><g fill="#000000" fill-opacity="1"><g transform="translate(148.247739, 124.502472)"><g><path d="M 41.796875 32.984375 C 37.734375 32.984375 33.878906 32.476562 30.234375 31.46875 C 26.597656 30.46875 23.382812 28.925781 20.59375 26.84375 C 17.8125 24.757812 15.613281 22.109375 14 18.890625 C 12.394531 15.679688 11.59375 11.894531 11.59375 7.53125 C 11.59375 6.625 11.644531 5.734375 11.75 4.859375 C 11.851562 3.984375 12.003906 3.140625 12.203125 2.328125 C 7.785156 1.523438 4.582031 0.125 2.59375 -1.875 C 0.613281 -3.882812 -0.375 -6.269531 -0.375 -9.03125 C -0.375 -11.894531 0.550781 -15.035156 2.40625 -18.453125 C -1.257812 -17.796875 -5.035156 -17.289062 -8.921875 -16.9375 C -12.816406 -16.59375 -16.820312 -16.421875 -20.9375 -16.421875 C -29.21875 -16.421875 -36.082031 -17.222656 -41.53125 -18.828125 C -46.976562 -20.429688 -51.046875 -22.472656 -53.734375 -24.953125 C -56.421875 -27.441406 -57.765625 -29.992188 -57.765625 -32.609375 C -57.765625 -35.773438 -56.921875 -38.550781 -55.234375 -40.9375 C -53.554688 -43.320312 -51.234375 -45.289062 -48.265625 -46.84375 C -45.304688 -48.394531 -41.84375 -49.5625 -37.875 -50.34375 C -33.914062 -51.125 -29.648438 -51.515625 -25.078125 -51.515625 C -20.109375 -51.515625 -14.910156 -51.0625 -9.484375 -50.15625 C -4.066406 -49.25 1.3125 -47.890625 6.65625 -46.078125 C 12.007812 -44.273438 17.097656 -42.019531 21.921875 -39.3125 C 26.390625 -42.625 31.195312 -45.625 36.34375 -48.3125 C 41.488281 -51 46.769531 -53.117188 52.1875 -54.671875 C 57.613281 -56.234375 62.9375 -57.015625 68.15625 -57.015625 C 69.664062 -57.015625 70.421875 -56.488281 70.421875 -55.4375 C 70.421875 -54.28125 69.515625 -52.609375 67.703125 -50.421875 C 65.898438 -48.234375 63.289062 -45.785156 59.875 -43.078125 C 56.457031 -40.367188 52.328125 -37.609375 47.484375 -34.796875 C 42.640625 -31.984375 37.191406 -29.320312 31.140625 -26.8125 C 25.085938 -24.300781 18.546875 -22.164062 11.515625 -20.40625 C 9.554688 -17.945312 8.023438 -15.5625 6.921875 -13.25 C 5.816406 -10.945312 5.265625 -8.835938 5.265625 -6.921875 C 5.265625 -5.117188 5.84375 -3.539062 7 -2.1875 C 8.15625 -0.832031 10.015625 0.195312 12.578125 0.90625 C 13.578125 -2.5625 15.269531 -5.765625 17.65625 -8.703125 C 20.039062 -11.640625 22.851562 -14.285156 26.09375 -16.640625 C 29.332031 -19.003906 32.796875 -21.023438 36.484375 -22.703125 C 40.179688 -24.390625 43.875 -25.671875 47.5625 -26.546875 C 51.25 -27.421875 54.703125 -27.859375 57.921875 -27.859375 C 59.921875 -27.859375 61.332031 -27.441406 62.15625 -26.609375 C 62.988281 -25.785156 63.40625 -24.75 63.40625 -23.5 C 63.40625 -20.882812 62.5 -18.304688 60.6875 -15.765625 C 58.882812 -13.234375 56.476562 -10.828125 53.46875 -8.546875 C 50.457031 -6.265625 47.09375 -4.253906 43.375 -2.515625 C 39.664062 -0.785156 35.875 0.578125 32 1.578125 C 28.132812 2.585938 24.5 3.09375 21.09375 3.09375 C 19.132812 3.09375 17.328125 3.015625 15.671875 2.859375 C 15.015625 4.117188 14.507812 5.375 14.15625 6.625 C 13.800781 7.882812 13.625 9.113281 13.625 10.3125 C 13.625 13.882812 14.398438 17.023438 15.953125 19.734375 C 17.515625 22.441406 19.640625 24.695312 22.328125 26.5 C 25.015625 28.3125 28.101562 29.679688 31.59375 30.609375 C 35.082031 31.546875 38.757812 32.015625 42.625 32.015625 C 46.789062 32.015625 50.984375 31.472656 55.203125 30.390625 C 59.421875 29.304688 63.4375 27.644531 67.25 25.40625 C 71.070312 23.175781 74.410156 20.378906 77.265625 17.015625 L 79.234375 18.75 C 75.867188 21.8125 72.101562 24.394531 67.9375 26.5 C 63.769531 28.613281 59.453125 30.222656 54.984375 31.328125 C 50.515625 32.429688 46.117188 32.984375 41.796875 32.984375 Z M 12.5 -21.609375 C 19.53125 -23.421875 25.984375 -25.582031 31.859375 -28.09375 C 37.734375 -30.601562 42.976562 -33.238281 47.59375 -36 C 52.21875 -38.757812 56.125 -41.421875 59.3125 -43.984375 C 62.5 -46.546875 64.921875 -48.804688 66.578125 -50.765625 C 68.234375 -52.722656 69.0625 -54.101562 69.0625 -54.90625 C 69.0625 -55.40625 68.757812 -55.65625 68.15625 -55.65625 C 65.195312 -55.65625 61.804688 -54.988281 57.984375 -53.65625 C 54.171875 -52.332031 50.164062 -50.523438 45.96875 -48.234375 C 41.78125 -45.953125 37.613281 -43.351562 33.46875 -40.4375 C 29.332031 -37.53125 25.457031 -34.457031 21.84375 -31.21875 C 18.226562 -27.976562 15.113281 -24.773438 12.5 -21.609375 Z M -21.84375 -17.328125 C -17.425781 -17.328125 -13.132812 -17.523438 -8.96875 -17.921875 C -4.800781 -18.328125 -0.804688 -18.851562 3.015625 -19.5 C 4.921875 -22.71875 7.441406 -25.984375 10.578125 -29.296875 C 13.710938 -32.609375 17.265625 -35.769531 21.234375 -38.78125 C 17.265625 -40.945312 13.007812 -42.71875 8.46875 -44.09375 C 3.925781 -45.476562 -0.710938 -46.507812 -5.453125 -47.1875 C -10.203125 -47.863281 -14.835938 -48.203125 -19.359375 -48.203125 C -24.171875 -48.203125 -28.722656 -47.835938 -33.015625 -47.109375 C -37.316406 -46.378906 -41.097656 -45.3125 -44.359375 -43.90625 C -47.617188 -42.5 -50.191406 -40.78125 -52.078125 -38.75 C -53.960938 -36.71875 -54.90625 -34.367188 -54.90625 -31.703125 C -54.90625 -29.242188 -53.710938 -26.921875 -51.328125 -24.734375 C -48.941406 -22.554688 -45.3125 -20.773438 -40.4375 -19.390625 C -35.570312 -18.015625 -29.375 -17.328125 -21.84375 -17.328125 Z M 21.546875 1.890625 C 24.753906 1.890625 28.203125 1.410156 31.890625 0.453125 C 35.585938 -0.503906 39.242188 -1.820312 42.859375 -3.5 C 46.472656 -5.1875 49.75 -7.117188 52.6875 -9.296875 C 55.625 -11.484375 57.984375 -13.804688 59.765625 -16.265625 C 61.546875 -18.722656 62.4375 -21.207031 62.4375 -23.71875 C 62.4375 -24.570312 62.222656 -25.285156 61.796875 -25.859375 C 61.367188 -26.441406 60.628906 -26.734375 59.578125 -26.734375 C 57.617188 -26.734375 55.144531 -26.207031 52.15625 -25.15625 C 49.164062 -24.101562 45.953125 -22.660156 42.515625 -20.828125 C 39.078125 -18.992188 35.675781 -16.882812 32.3125 -14.5 C 28.945312 -12.113281 25.859375 -9.539062 23.046875 -6.78125 C 20.234375 -4.019531 18 -1.234375 16.34375 1.578125 C 17.09375 1.679688 17.90625 1.757812 18.78125 1.8125 C 19.664062 1.863281 20.585938 1.890625 21.546875 1.890625 Z M 21.546875 1.890625 "/></g></g></g><g fill="#000000" fill-opacity="1"><g transform="translate(210.003048, 124.502472)"><g><path d="M -1.890625 1.046875 C -3.035156 1.046875 -3.910156 0.769531 -4.515625 0.21875 C -5.117188 -0.332031 -5.421875 -1.007812 -5.421875 -1.8125 C -5.421875 -3.257812 -4.84375 -4.875 -3.6875 -6.65625 C -2.53125 -8.445312 -1.015625 -10.320312 0.859375 -12.28125 C 2.742188 -14.238281 4.800781 -16.21875 7.03125 -18.21875 C 9.269531 -20.226562 11.46875 -22.238281 13.625 -24.25 C 15.789062 -26.257812 17.726562 -28.164062 19.4375 -29.96875 C 20.9375 -31.582031 22.640625 -33.34375 24.546875 -35.25 C 26.453125 -37.15625 28.4375 -39.035156 30.5 -40.890625 C 32.5625 -42.753906 34.570312 -44.453125 36.53125 -45.984375 C 38.488281 -47.515625 40.296875 -48.742188 41.953125 -49.671875 C 43.609375 -50.597656 44.988281 -51.0625 46.09375 -51.0625 C 47.195312 -51.0625 47.75 -50.535156 47.75 -49.484375 C 47.75 -48.222656 46.957031 -46.398438 45.375 -44.015625 C 43.789062 -41.628906 41.46875 -38.941406 38.40625 -35.953125 C 35.34375 -32.972656 31.601562 -29.890625 27.1875 -26.703125 C 22.769531 -23.515625 17.722656 -20.515625 12.046875 -17.703125 C 8.585938 -13.734375 5.664062 -10.664062 3.28125 -8.5 C 0.894531 -6.34375 -0.910156 -4.703125 -2.140625 -3.578125 C -3.367188 -2.453125 -3.984375 -1.484375 -3.984375 -0.671875 C -3.984375 -0.0234375 -3.332031 0.296875 -2.03125 0.296875 C -1.226562 0.296875 -0.203125 0.0976562 1.046875 -0.296875 C 2.304688 -0.703125 3.765625 -1.378906 5.421875 -2.328125 C 6.273438 -2.835938 7.164062 -3.414062 8.09375 -4.0625 C 9.019531 -4.71875 10.015625 -5.375 11.078125 -6.03125 L 18.984375 -11.296875 L 19.28125 -10.6875 L 11.515625 -5.5 C 9.410156 -4.09375 7.457031 -2.8125 5.65625 -1.65625 C 4.039062 -0.695312 2.601562 -0.0078125 1.34375 0.40625 C 0.09375 0.832031 -0.984375 1.046875 -1.890625 1.046875 Z M 13.328125 -19.203125 C 19.304688 -22.460938 24.390625 -25.660156 28.578125 -28.796875 C 32.773438 -31.941406 36.175781 -34.878906 38.78125 -37.609375 C 41.394531 -40.347656 43.316406 -42.707031 44.546875 -44.6875 C 45.773438 -46.675781 46.390625 -48.125 46.390625 -49.03125 C 46.390625 -49.675781 46.113281 -50 45.5625 -50 C 44.757812 -50 43.601562 -49.5625 42.09375 -48.6875 C 40.59375 -47.8125 38.882812 -46.617188 36.96875 -45.109375 C 35.0625 -43.609375 33.054688 -41.890625 30.953125 -39.953125 C 28.847656 -38.015625 26.765625 -35.96875 24.703125 -33.8125 C 22.597656 -30.851562 20.585938 -28.164062 18.671875 -25.75 C 16.765625 -23.34375 14.984375 -21.160156 13.328125 -19.203125 Z M 13.328125 -19.203125 "/></g></g></g><g fill="#000000" fill-opacity="1"><g transform="translate(228.228393, 124.502472)"><g><path d="M 0.453125 1.734375 C -1.203125 1.734375 -2.40625 1.378906 -3.15625 0.671875 C -3.914062 -0.0234375 -4.296875 -0.925781 -4.296875 -2.03125 C -4.296875 -3.382812 -3.828125 -4.925781 -2.890625 -6.65625 C -1.960938 -8.394531 -0.6875 -10.164062 0.9375 -11.96875 C 2.570312 -13.78125 4.46875 -15.453125 6.625 -16.984375 C 8.78125 -18.515625 11.101562 -19.742188 13.59375 -20.671875 C 16.082031 -21.597656 18.628906 -22.0625 21.234375 -22.0625 C 23.046875 -22.0625 23.953125 -21.359375 23.953125 -19.953125 C 23.953125 -18.953125 23.5 -17.660156 22.59375 -16.078125 C 21.6875 -14.492188 20.46875 -12.820312 18.9375 -11.0625 C 17.40625 -9.3125 15.738281 -7.609375 13.9375 -5.953125 L 14.6875 -5.953125 C 15.6875 -5.953125 17.003906 -6.238281 18.640625 -6.8125 C 20.273438 -7.394531 21.816406 -8.160156 23.265625 -9.109375 L 26.203125 -11.078125 L 26.515625 -10.46875 L 23.71875 -8.578125 C 23.21875 -8.285156 22.441406 -7.863281 21.390625 -7.3125 C 20.335938 -6.757812 19.191406 -6.269531 17.953125 -5.84375 C 16.722656 -5.414062 15.609375 -5.203125 14.609375 -5.203125 C 14.109375 -5.203125 13.65625 -5.273438 13.25 -5.421875 C 10.988281 -3.410156 8.691406 -1.710938 6.359375 -0.328125 C 4.023438 1.046875 2.054688 1.734375 0.453125 1.734375 Z M 0.21875 1.046875 C 1.832031 1.046875 3.742188 0.367188 5.953125 -0.984375 C 8.160156 -2.335938 10.34375 -3.96875 12.5 -5.875 C 12.144531 -6.53125 11.96875 -7.179688 11.96875 -7.828125 C 11.96875 -8.785156 12.316406 -9.585938 13.015625 -10.234375 C 13.722656 -10.890625 14.59375 -11.378906 15.625 -11.703125 C 16.65625 -12.035156 17.648438 -12.203125 18.609375 -12.203125 C 19.910156 -13.804688 20.972656 -15.3125 21.796875 -16.71875 C 22.628906 -18.125 23.046875 -19.226562 23.046875 -20.03125 C 23.046875 -20.9375 22.519531 -21.390625 21.46875 -21.390625 C 20.613281 -21.390625 19.457031 -20.988281 18 -20.1875 C 16.539062 -19.382812 14.945312 -18.328125 13.21875 -17.015625 C 11.488281 -15.710938 9.742188 -14.28125 7.984375 -12.71875 C 6.222656 -11.164062 4.613281 -9.597656 3.15625 -8.015625 C 1.707031 -6.441406 0.53125 -4.972656 -0.375 -3.609375 C -1.28125 -2.253906 -1.734375 -1.175781 -1.734375 -0.375 C -1.734375 0.570312 -1.082031 1.046875 0.21875 1.046875 Z M 0.21875 1.046875 "/></g></g></g></g></g></svg>